<svg xmlns="http://www.w3.org/2000/svg" xmlns:xlink="http://www.w3.org/1999/xlink" viewBox="0 0 1250 800"><defs><style>.cls-1{fill:#fff;}.cls-2{fill:#2caf75;}.cls-10,.cls-3,.cls-4,.cls-5,.cls-6,.cls-7,.cls-8,.cls-9{fill-rule:evenodd;}.cls-3{fill:url(#Degradado_sin_nombre_4);}.cls-4{fill:url(#Degradado_sin_nombre_3);}.cls-5{fill:url(#Degradado_sin_nombre_5);}.cls-6{fill:url(#Degradado_sin_nombre_7);}.cls-7{fill:url(#Degradado_sin_nombre_9);}.cls-8{fill:url(#Degradado_sin_nombre_11);}.cls-9{fill:url(#Degradado_sin_nombre_13);}.cls-10{fill:url(#Degradado_sin_nombre_2);}</style><linearGradient id="Degradado_sin_nombre_4" x1="29220.6" y1="-52069.96" x2="25459.04" y2="-48218.85" gradientTransform="matrix(0.06, 0, 0, -0.06, -890.42, -2810.68)" gradientUnits="userSpaceOnUse"><stop offset="0" stop-color="#a9cc58"/><stop offset="1" stop-color="#81f57d"/></linearGradient><linearGradient id="Degradado_sin_nombre_3" x1="28256.49" y1="-50446.85" x2="25975.73" y2="-48111.79" gradientTransform="matrix(0.06, 0, 0, -0.06, -890.42, -2810.68)" gradientUnits="userSpaceOnUse"><stop offset="0" stop-color="#8fc412"/><stop offset="1" stop-color="#27d920"/></linearGradient><linearGradient id="Degradado_sin_nombre_5" x1="30070.8" y1="-53465.22" x2="26565.15" y2="-49876.09" gradientTransform="matrix(0.06, 0, 0, -0.06, -890.42, -2810.68)" gradientUnits="userSpaceOnUse"><stop offset="0" stop-color="#14b80e"/><stop offset="1" stop-color="#0cab4c"/></linearGradient><linearGradient id="Degradado_sin_nombre_7" x1="33461.76" y1="-51400.18" x2="28843.06" y2="-46671.5" gradientTransform="matrix(0.06, 0, 0, -0.06, -890.42, -2810.68)" gradientUnits="userSpaceOnUse"><stop offset="0" stop-color="#8fc412"/><stop offset="1" stop-color="#20d9b7"/></linearGradient><linearGradient id="Degradado_sin_nombre_9" x1="29586.95" y1="-50061.81" x2="27321.68" y2="-47742.61" gradientTransform="matrix(0.06, 0, 0, -0.06, -890.42, -2810.68)" gradientUnits="userSpaceOnUse"><stop offset="0" stop-color="#aceb1a"/><stop offset="1" stop-color="#2aebc8"/></linearGradient><linearGradient id="Degradado_sin_nombre_11" x1="28290.05" y1="-48854.76" x2="27051.17" y2="-47586.36" gradientTransform="matrix(0.06, 0, 0, -0.06, -890.42, -2810.68)" gradientUnits="userSpaceOnUse"><stop offset="0" stop-color="#17e310"/><stop offset="1" stop-color="#0cab4c"/></linearGradient><linearGradient id="Degradado_sin_nombre_13" x1="31483.07" y1="-52465.51" x2="29508.68" y2="-50444.13" gradientTransform="matrix(0.06, 0, 0, -0.06, -890.42, -2810.68)" gradientUnits="userSpaceOnUse"><stop offset="0" stop-color="#12c44e"/><stop offset="1" stop-color="#43f7eb"/></linearGradient><linearGradient id="Degradado_sin_nombre_2" x1="30231.22" y1="-53748.04" x2="28474.87" y2="-51949.86" gradientTransform="matrix(0.06, 0, 0, -0.06, -890.42, -2810.68)" gradientUnits="userSpaceOnUse"><stop offset="0" stop-color="#05912a"/><stop offset="1" stop-color="#038557"/></linearGradient></defs><g id="Dark_slogan_T" data-name="Dark slogan T"><path class="cls-1" d="M418,635.82l12.84-38.5h1.41l7.23,30.22,15.67-30.22h1.41l2.06,38.5h-2.42l-1.73-32.37-15,29h-1.35l-6.9-29L420.4,635.82Z"/><path class="cls-1" d="M491.11,608.32h2.36l-3.88,27.5h-2.36l.82-6a15,15,0,0,1-4.84,4.86,12.45,12.45,0,0,1-6.76,1.85,13,13,0,0,1-5.49-1.12,12,12,0,0,1-4.18-3.14,12.29,12.29,0,0,1-2.47-4.62A13.51,13.51,0,0,1,464,622a15.63,15.63,0,0,1,1.92-5.62,17.77,17.77,0,0,1,3.75-4.61,17.52,17.52,0,0,1,5-3.1,15.18,15.18,0,0,1,5.75-1.13,10.35,10.35,0,0,1,6.35,1.86,10,10,0,0,1,3.55,4.88ZM476.78,634.2a10.84,10.84,0,0,0,6-1.65,12.78,12.78,0,0,0,4.22-4.42A16,16,0,0,0,489,622a13.86,13.86,0,0,0-.47-6.13,8.84,8.84,0,0,0-3-4.37,8.72,8.72,0,0,0-5.43-1.62,12.83,12.83,0,0,0-6.33,1.65,15,15,0,0,0-5,4.42,13.64,13.64,0,0,0-2.46,6.16,10.82,10.82,0,0,0,.85,6.12,10.21,10.21,0,0,0,3.82,4.35A10.59,10.59,0,0,0,476.78,634.2Z"/><path class="cls-1" d="M516.79,635.82H514.1l-6.38-14.58-7.43,7.62-1,7h-2.36l5.8-41.25h2.36l-4.29,30.58,16.5-16.83h3.08l-10.8,11Z"/><path class="cls-1" d="M526.44,608.32h2.37l-3.88,27.5h-2.36Zm2.07-6a1.36,1.36,0,0,1-1.06-.43,1.29,1.29,0,0,1-.32-1.09,1.68,1.68,0,0,1,.62-1.09,1.79,1.79,0,0,1,1.17-.42,1.36,1.36,0,0,1,1,.42,1.17,1.17,0,0,1,.29,1.07,1.65,1.65,0,0,1-.59,1.11A1.71,1.71,0,0,1,528.51,602.3Z"/><path class="cls-1" d="M557,620.72l-2.14,15.1h-2.37l2.15-15a11.22,11.22,0,0,0-.52-5.5,8.76,8.76,0,0,0-2.88-4,7.31,7.31,0,0,0-4.58-1.48,9,9,0,0,0-4.9,1.48,13.17,13.17,0,0,0-3.94,4,13.71,13.71,0,0,0-2.05,5.5l-2.11,15h-2.37l3.88-27.5h2.36l-.74,5.28a15.7,15.7,0,0,1,4.73-4.46,11,11,0,0,1,5.67-1.59,9.09,9.09,0,0,1,5.72,1.83,10.56,10.56,0,0,1,3.45,4.82A13.83,13.83,0,0,1,557,620.72Z"/><path class="cls-1" d="M586.83,608.32h2.37l-4.07,28.76a11.55,11.55,0,0,1-1.75,4.72,16.92,16.92,0,0,1-3.53,4,17.14,17.14,0,0,1-4.61,2.77,13.49,13.49,0,0,1-5,1,10.8,10.8,0,0,1-5.32-1.36,12.29,12.29,0,0,1-4.07-3.61,10.49,10.49,0,0,1-1.94-4.9l2.34-1a8.13,8.13,0,0,0,1.5,4.28,10.33,10.33,0,0,0,3.42,3.09,8.9,8.9,0,0,0,4.4,1.15,10.71,10.71,0,0,0,4.09-.83,15.22,15.22,0,0,0,3.79-2.26,13.52,13.52,0,0,0,2.92-3.23,9,9,0,0,0,1.41-3.8l1-7.2a15.63,15.63,0,0,1-4.87,4.81,12.56,12.56,0,0,1-11.73.72,11.55,11.55,0,0,1-4-3.12,12.16,12.16,0,0,1-2.32-4.61,13.93,13.93,0,0,1-.29-5.61,16.06,16.06,0,0,1,1.85-5.65,18.19,18.19,0,0,1,3.63-4.62,16.94,16.94,0,0,1,4.86-3.12,14.05,14.05,0,0,1,5.52-1.13,9.59,9.59,0,0,1,6,1.84,10.27,10.27,0,0,1,3.49,4.84ZM572.75,634.2a10.31,10.31,0,0,0,5.78-1.69,13.58,13.58,0,0,0,4.19-4.46,15.8,15.8,0,0,0,2.08-6,13.73,13.73,0,0,0-.41-6.08,9,9,0,0,0-3-4.44,8.19,8.19,0,0,0-5.26-1.66,11.87,11.87,0,0,0-6,1.63,14.49,14.49,0,0,0-4.74,4.42,14,14,0,0,0-2.38,6.13,11.42,11.42,0,0,0,.7,6.13,9.89,9.89,0,0,0,3.53,4.37A9.44,9.44,0,0,0,572.75,634.2Z"/><path class="cls-1" d="M634.49,594.57h2.36l-5.8,41.25h-2.36l.85-6a14.94,14.94,0,0,1-4.87,4.88,12.66,12.66,0,0,1-6.82,1.85,13,13,0,0,1-5.46-1.12,12,12,0,0,1-4.16-3.12,12.15,12.15,0,0,1-2.46-4.61,13.39,13.39,0,0,1-.35-5.61,15.76,15.76,0,0,1,1.91-5.65,18.06,18.06,0,0,1,3.77-4.62,17.47,17.47,0,0,1,5-3.12,15.21,15.21,0,0,1,5.77-1.13,10.2,10.2,0,0,1,6.3,1.86,9.84,9.84,0,0,1,3.49,4.88ZM618.18,634.2a10.86,10.86,0,0,0,5.94-1.64,13,13,0,0,0,4.24-4.4,16.06,16.06,0,0,0,2.11-6.09,13.75,13.75,0,0,0-.42-6.17,8.29,8.29,0,0,0-8.46-6,12.86,12.86,0,0,0-6.3,1.63,15.2,15.2,0,0,0-5,4.42,13.57,13.57,0,0,0-2.49,6.13,11,11,0,0,0,.8,6.16,10.06,10.06,0,0,0,3.8,4.36A10.53,10.53,0,0,0,618.18,634.2Z"/><path class="cls-1" d="M650.36,636.53a11.44,11.44,0,0,1-6.64-1.95,11.77,11.77,0,0,1-4.24-5.24,13.7,13.7,0,0,1-.84-7.27,16.29,16.29,0,0,1,1.86-5.65,18.11,18.11,0,0,1,3.61-4.62,16.8,16.8,0,0,1,4.83-3.12,13.94,13.94,0,0,1,5.49-1.13,12,12,0,0,1,5.32,1.14,10.4,10.4,0,0,1,3.89,3.22,12.36,12.36,0,0,1,2.14,4.92,17.61,17.61,0,0,1,.11,6.26h-25a11.42,11.42,0,0,0,1.05,5.68,9.42,9.42,0,0,0,8.72,5.4,11.72,11.72,0,0,0,6.12-1.73,14.89,14.89,0,0,0,4.82-4.76l2.31.55a17.86,17.86,0,0,1-5.81,6A14.19,14.19,0,0,1,650.36,636.53ZM641.2,621h22.63a10.23,10.23,0,0,0-.91-5.54,9.94,9.94,0,0,0-3.5-4.09,9.39,9.39,0,0,0-5.32-1.54,11.56,11.56,0,0,0-5.72,1.5,14.46,14.46,0,0,0-4.6,4.05A14.7,14.7,0,0,0,641.2,621Z"/><path class="cls-1" d="M669.72,635.82l5.8-41.25h2.36l-5.8,41.25Z"/><path class="cls-1" d="M683.3,608.32h2.37l-3.88,27.5h-2.37Zm2.06-6a1.37,1.37,0,0,1-1.06-.43,1.28,1.28,0,0,1-.31-1.09,1.68,1.68,0,0,1,.62-1.09,1.79,1.79,0,0,1,1.17-.42,1.36,1.36,0,0,1,1,.42,1.16,1.16,0,0,1,.28,1.07,1.61,1.61,0,0,1-.59,1.11A1.71,1.71,0,0,1,685.36,602.3Z"/><path class="cls-1" d="M700.08,635.82h-2.92L691,608.21h2.53L699,633l12.46-24.78H714Z"/><path class="cls-1" d="M725.82,636.53a11.5,11.5,0,0,1-6.65-1.95,11.82,11.82,0,0,1-4.23-5.24,13.51,13.51,0,0,1-.84-7.27,16.08,16.08,0,0,1,1.86-5.65,17.89,17.89,0,0,1,3.61-4.62,16.8,16.8,0,0,1,4.83-3.12,13.93,13.93,0,0,1,5.48-1.13,12.06,12.06,0,0,1,5.33,1.14,10.48,10.48,0,0,1,3.89,3.22,12.5,12.5,0,0,1,2.14,4.92,17.61,17.61,0,0,1,.11,6.26h-25a11.42,11.42,0,0,0,1,5.68,9.42,9.42,0,0,0,8.72,5.4,11.66,11.66,0,0,0,6.11-1.73,14.82,14.82,0,0,0,4.83-4.76l2.31.55a17.79,17.79,0,0,1-5.82,6A14.16,14.16,0,0,1,725.82,636.53ZM716.66,621h22.63a10.23,10.23,0,0,0-.91-5.54,9.94,9.94,0,0,0-3.5-4.09,9.4,9.4,0,0,0-5.33-1.54,11.55,11.55,0,0,0-5.71,1.5,14.46,14.46,0,0,0-4.6,4.05A14.7,14.7,0,0,0,716.66,621Z"/><path class="cls-1" d="M762.72,610.46a7.36,7.36,0,0,0-1.33-.42,7.2,7.2,0,0,0-1.5-.15,9.08,9.08,0,0,0-4.95,1.48,12.94,12.94,0,0,0-4,4,13.76,13.76,0,0,0-2,5.51l-2.12,15h-2.36l3.88-27.5h2.36L750,613.6a15.45,15.45,0,0,1,4.76-4.46,11.05,11.05,0,0,1,5.66-1.59,10.45,10.45,0,0,1,1.62.12,8.06,8.06,0,0,1,1.43.37Z"/><path class="cls-1" d="M767.53,608.32h2.37L766,635.82h-2.36Zm2.06-6a1.35,1.35,0,0,1-1.05-.43,1.29,1.29,0,0,1-.32-1.09,1.68,1.68,0,0,1,.62-1.09,1.79,1.79,0,0,1,1.17-.42,1.36,1.36,0,0,1,1,.42,1.19,1.19,0,0,1,.29,1.07,1.65,1.65,0,0,1-.59,1.11A1.71,1.71,0,0,1,769.59,602.3Z"/><path class="cls-1" d="M785,636.53a11.47,11.47,0,0,1-6.65-1.95,11.75,11.75,0,0,1-4.23-5.24,13.51,13.51,0,0,1-.84-7.27,15.88,15.88,0,0,1,1.86-5.65,17.89,17.89,0,0,1,3.61-4.62,16.8,16.8,0,0,1,4.83-3.12,13.93,13.93,0,0,1,5.48-1.13,12.09,12.09,0,0,1,5.33,1.14,10.48,10.48,0,0,1,3.89,3.22,12.5,12.5,0,0,1,2.14,4.92,17.61,17.61,0,0,1,.11,6.26h-25a11.42,11.42,0,0,0,1.05,5.68,9.42,9.42,0,0,0,8.72,5.4,11.66,11.66,0,0,0,6.11-1.73,14.82,14.82,0,0,0,4.83-4.76l2.31.55a17.79,17.79,0,0,1-5.82,6A14.16,14.16,0,0,1,785,636.53ZM775.84,621h22.63a10.23,10.23,0,0,0-.91-5.54,10,10,0,0,0-3.5-4.09,9.4,9.4,0,0,0-5.33-1.54,11.61,11.61,0,0,0-5.72,1.5,14.85,14.85,0,0,0-7.17,9.67Z"/><path class="cls-1" d="M812.63,636.37a13.14,13.14,0,0,1-4.44-.81,10.25,10.25,0,0,1-3.53-2.13,6,6,0,0,1-1.82-3l2.23-.91a4.44,4.44,0,0,0,1.61,2.39,9.5,9.5,0,0,0,3,1.64,10.45,10.45,0,0,0,3.37.59,10.79,10.79,0,0,0,3.84-.69,8.42,8.42,0,0,0,3.08-1.93,5.19,5.19,0,0,0,1.5-2.91,3.14,3.14,0,0,0-.74-2.77,7.15,7.15,0,0,0-2.67-1.65c-1.12-.42-2.28-.83-3.49-1.21a49.2,49.2,0,0,1-5-1.82,7.17,7.17,0,0,1-3.08-2.28,5,5,0,0,1-.68-3.69,7.27,7.27,0,0,1,2-4.13,11.31,11.31,0,0,1,4.07-2.71,13.16,13.16,0,0,1,5-1,11.48,11.48,0,0,1,6,1.5,7,7,0,0,1,3.32,3.92L823.93,614a4.63,4.63,0,0,0-1.51-2.31,8.21,8.21,0,0,0-2.68-1.5,9.61,9.61,0,0,0-3.18-.54,11.36,11.36,0,0,0-3.87.66,8.37,8.37,0,0,0-3.11,1.91,5.12,5.12,0,0,0-1.51,3,3.26,3.26,0,0,0,.56,2.71,5.92,5.92,0,0,0,2.49,1.51c1.12.39,2.44.85,4,1.36a40.6,40.6,0,0,1,4.56,1.75,8.94,8.94,0,0,1,3.28,2.37,4.6,4.6,0,0,1,.85,3.72,7.53,7.53,0,0,1-2,4.15,11.14,11.14,0,0,1-4.1,2.71A13.33,13.33,0,0,1,812.63,636.37Z"/><path class="cls-1" d="M381.53,702.37a13.14,13.14,0,0,1-4.44-.81,10.25,10.25,0,0,1-3.53-2.13,6,6,0,0,1-1.82-3l2.23-.91a4.44,4.44,0,0,0,1.61,2.39,9.44,9.44,0,0,0,3,1.64,10.35,10.35,0,0,0,3.36.59,10.79,10.79,0,0,0,3.84-.69,8.42,8.42,0,0,0,3.08-1.93,5.19,5.19,0,0,0,1.5-2.91,3.14,3.14,0,0,0-.74-2.77,7.15,7.15,0,0,0-2.67-1.65c-1.12-.42-2.28-.83-3.49-1.21a50.08,50.08,0,0,1-5-1.82,7.17,7.17,0,0,1-3.08-2.28,5,5,0,0,1-.68-3.69,7.27,7.27,0,0,1,2-4.13,11.31,11.31,0,0,1,4.07-2.71,13.16,13.16,0,0,1,5-1,11.55,11.55,0,0,1,6,1.5A7,7,0,0,1,395,678.8L392.83,680a4.63,4.63,0,0,0-1.51-2.31,8.21,8.21,0,0,0-2.68-1.5,9.61,9.61,0,0,0-3.18-.54,11.36,11.36,0,0,0-3.87.66,8.37,8.37,0,0,0-3.11,1.91,5.12,5.12,0,0,0-1.51,3,3.26,3.26,0,0,0,.56,2.71,5.92,5.92,0,0,0,2.49,1.51c1.12.39,2.44.85,4,1.36a40.6,40.6,0,0,1,4.56,1.75,8.94,8.94,0,0,1,3.28,2.37,4.6,4.6,0,0,1,.85,3.72,7.53,7.53,0,0,1-2,4.15,11.14,11.14,0,0,1-4.1,2.71A13.33,13.33,0,0,1,381.53,702.37Z"/><path class="cls-1" d="M398.42,689.36l2.11-15h2.37l-2.09,14.93a11.09,11.09,0,0,0,.48,5.49,8.58,8.58,0,0,0,2.87,4,7.37,7.37,0,0,0,4.57,1.49,9,9,0,0,0,4.92-1.49,13,13,0,0,0,4-4,13.33,13.33,0,0,0,2-5.49l2.09-14.93h2.36l-3.88,27.5h-2.36l.77-5.34a15.47,15.47,0,0,1-4.73,4.46,11,11,0,0,1-5.64,1.59,9.13,9.13,0,0,1-5.75-1.82,10.54,10.54,0,0,1-3.45-4.83A13.82,13.82,0,0,1,398.42,689.36Z"/><path class="cls-1" d="M435.73,702.37a13.23,13.23,0,0,1-4.44-.81,10.25,10.25,0,0,1-3.53-2.13,6,6,0,0,1-1.82-3l2.23-.91a4.44,4.44,0,0,0,1.61,2.39,9.44,9.44,0,0,0,3,1.64,10.41,10.41,0,0,0,3.37.59,10.78,10.78,0,0,0,3.83-.69,8.42,8.42,0,0,0,3.08-1.93,5.07,5.07,0,0,0,1.5-2.91,3.11,3.11,0,0,0-.74-2.77,7.15,7.15,0,0,0-2.67-1.65c-1.12-.42-2.28-.83-3.49-1.21a48.94,48.94,0,0,1-5-1.82,7.11,7.11,0,0,1-3.08-2.28,5,5,0,0,1-.69-3.69,7.27,7.27,0,0,1,2-4.13,11.31,11.31,0,0,1,4.07-2.71,13.19,13.19,0,0,1,5-1,11.52,11.52,0,0,1,6,1.5,7,7,0,0,1,3.31,3.92L447,680a4.65,4.65,0,0,0-1.52-2.31,8.21,8.21,0,0,0-2.68-1.5,9.56,9.56,0,0,0-3.17-.54,11.42,11.42,0,0,0-3.88.66,8.37,8.37,0,0,0-3.11,1.91,5.12,5.12,0,0,0-1.51,3,3.26,3.26,0,0,0,.56,2.71,5.92,5.92,0,0,0,2.49,1.51c1.12.39,2.44.85,4,1.36a41.55,41.55,0,0,1,4.57,1.75,9,9,0,0,1,3.27,2.37,4.57,4.57,0,0,1,.85,3.72,7.53,7.53,0,0,1-2,4.15,11.05,11.05,0,0,1-4.1,2.71A13.29,13.29,0,0,1,435.73,702.37Z"/><path class="cls-1" d="M468.1,676.69h-7.23l-3.58,25.13h-2.36l3.57-25.13h-5.44l.36-2.37h5.44l1.16-8.63h2.36l-1.15,8.63h7.2Z"/><path class="cls-1" d="M496.37,674.32h2.37l-3.88,27.5h-2.37l.83-6a15.08,15.08,0,0,1-4.84,4.86,12.49,12.49,0,0,1-6.77,1.85,13,13,0,0,1-5.48-1.12,12,12,0,0,1-4.18-3.14,12.31,12.31,0,0,1-2.48-4.62,13.52,13.52,0,0,1-.34-5.64,15.43,15.43,0,0,1,1.91-5.62,18,18,0,0,1,3.75-4.61,17.57,17.57,0,0,1,5-3.1,15.13,15.13,0,0,1,5.74-1.13,10.38,10.38,0,0,1,6.36,1.86,9.93,9.93,0,0,1,3.54,4.88ZM482,700.2a10.9,10.9,0,0,0,6-1.65,12.78,12.78,0,0,0,4.22-4.42,16,16,0,0,0,2.06-6.12,13.72,13.72,0,0,0-.47-6.13,8.32,8.32,0,0,0-8.47-6,12.82,12.82,0,0,0-6.32,1.65,15,15,0,0,0-5,4.42,13.87,13.87,0,0,0-2.46,6.16,10.74,10.74,0,0,0,.86,6.12,10.14,10.14,0,0,0,3.82,4.35A10.55,10.55,0,0,0,482,700.2Z"/><path class="cls-1" d="M505.34,674.32h2.36l-3.88,27.5h-2.36Zm2.06-6a1.37,1.37,0,0,1-1.06-.43,1.29,1.29,0,0,1-.32-1.09,1.72,1.72,0,0,1,.62-1.09,1.79,1.79,0,0,1,1.17-.42,1.35,1.35,0,0,1,1,.42,1.17,1.17,0,0,1,.29,1.07,1.61,1.61,0,0,1-.59,1.11A1.71,1.71,0,0,1,507.4,668.3Z"/><path class="cls-1" d="M535.92,686.72l-2.15,15.1h-2.36l2.14-15a11.1,11.1,0,0,0-.52-5.5,8.75,8.75,0,0,0-2.87-4,7.33,7.33,0,0,0-4.58-1.48,9,9,0,0,0-4.91,1.48,13,13,0,0,0-3.93,4,13.42,13.42,0,0,0-2,5.5l-2.12,15H510.2l3.88-27.5h2.37l-.75,5.28a15.7,15.7,0,0,1,4.73-4.46,11,11,0,0,1,5.67-1.59,9.07,9.07,0,0,1,5.72,1.83,10.42,10.42,0,0,1,3.45,4.82A13.83,13.83,0,0,1,535.92,686.72Z"/><path class="cls-1" d="M566.94,674.32h2.36l-3.88,27.5h-2.36l.82-6a15,15,0,0,1-4.84,4.86,12.45,12.45,0,0,1-6.76,1.85,13,13,0,0,1-5.49-1.12,12,12,0,0,1-4.18-3.14,12.29,12.29,0,0,1-2.47-4.62,13.51,13.51,0,0,1-.35-5.64,15.63,15.63,0,0,1,1.92-5.62,17.77,17.77,0,0,1,3.75-4.61,17.52,17.52,0,0,1,5-3.1,15.18,15.18,0,0,1,5.75-1.13,10.35,10.35,0,0,1,6.35,1.86,10,10,0,0,1,3.55,4.88ZM552.61,700.2a10.84,10.84,0,0,0,5.95-1.65,12.78,12.78,0,0,0,4.22-4.42,16,16,0,0,0,2.07-6.12,13.86,13.86,0,0,0-.47-6.13,8.84,8.84,0,0,0-3-4.37,8.72,8.72,0,0,0-5.43-1.62,12.83,12.83,0,0,0-6.33,1.65,15,15,0,0,0-5,4.42,13.64,13.64,0,0,0-2.46,6.16,10.82,10.82,0,0,0,.85,6.12,10.21,10.21,0,0,0,3.82,4.35A10.59,10.59,0,0,0,552.61,700.2Z"/><path class="cls-1" d="M589.13,673.55a12.59,12.59,0,0,1,7,2,12.06,12.06,0,0,1,4.51,5.25,13,13,0,0,1,.92,7.32,15.44,15.44,0,0,1-1.91,5.61,18.19,18.19,0,0,1-3.77,4.61,17.69,17.69,0,0,1-5,3.12,15.2,15.2,0,0,1-5.77,1.12,9.75,9.75,0,0,1-9.82-6.73l-.85,6H572l5.81-41.25h2.36l-2.78,19.72a15.06,15.06,0,0,1,4.91-4.88A12.71,12.71,0,0,1,589.13,673.55Zm-3.77,26.65a13,13,0,0,0,6.34-1.64,15.05,15.05,0,0,0,5-4.4,13.45,13.45,0,0,0,2.48-6.09,10.74,10.74,0,0,0-.8-6.2,10.14,10.14,0,0,0-3.82-4.37,10.5,10.5,0,0,0-5.78-1.61,10.79,10.79,0,0,0-5.92,1.65,12.84,12.84,0,0,0-4.24,4.42,16.44,16.44,0,0,0-2.1,6.11,13.59,13.59,0,0,0,.41,6.13,8.28,8.28,0,0,0,8.44,6Z"/><path class="cls-1" d="M605.19,701.82l5.8-41.25h2.37l-5.81,41.25Z"/><path class="cls-1" d="M626.91,702.53a11.46,11.46,0,0,1-6.64-1.95,11.69,11.69,0,0,1-4.23-5.24,13.51,13.51,0,0,1-.84-7.27,16.06,16.06,0,0,1,1.85-5.65,18.15,18.15,0,0,1,3.62-4.62,16.8,16.8,0,0,1,4.83-3.12,13.9,13.9,0,0,1,5.48-1.13,12,12,0,0,1,5.32,1.14,10.43,10.43,0,0,1,3.9,3.22,12.5,12.5,0,0,1,2.14,4.92,17.84,17.84,0,0,1,.11,6.26h-25a11.42,11.42,0,0,0,1,5.68,9.39,9.39,0,0,0,8.71,5.4,11.67,11.67,0,0,0,6.12-1.73,14.82,14.82,0,0,0,4.83-4.76l2.31.55a17.79,17.79,0,0,1-5.82,6A14.19,14.19,0,0,1,626.91,702.53ZM617.75,687h22.64a10.23,10.23,0,0,0-.91-5.54,10,10,0,0,0-3.51-4.09,9.37,9.37,0,0,0-5.32-1.54,11.61,11.61,0,0,0-5.72,1.5,14.54,14.54,0,0,0-4.59,4.05A14.71,14.71,0,0,0,617.75,687Z"/><path class="cls-1" d="M643.58,704.9l3-9.3h2.36l-3.79,9.3Z"/><path class="cls-2" d="M685.1,676.69h-7.23l-3.58,25.13h-2.36l3.57-25.13h-5.44l.36-2.37h5.44l1.16-8.63h2.36l-1.15,8.63h7.2Z"/><path class="cls-2" d="M697.67,702.53a11.44,11.44,0,0,1-6.64-1.95,11.77,11.77,0,0,1-4.24-5.24,13.7,13.7,0,0,1-.84-7.27,16.29,16.29,0,0,1,1.86-5.65,17.93,17.93,0,0,1,3.62-4.62,16.62,16.62,0,0,1,4.82-3.12,13.94,13.94,0,0,1,5.49-1.13,11.46,11.46,0,0,1,6.64,2,11.83,11.83,0,0,1,4.25,5.25,13.49,13.49,0,0,1,.82,7.32,15.93,15.93,0,0,1-1.85,5.61,18.28,18.28,0,0,1-3.62,4.61,17.06,17.06,0,0,1-4.81,3.12A13.87,13.87,0,0,1,697.67,702.53Zm.33-2.36a11.54,11.54,0,0,0,6-1.68,14.86,14.86,0,0,0,4.71-4.43,13.83,13.83,0,0,0,2.37-6,11.39,11.39,0,0,0-.67-6,10.22,10.22,0,0,0-3.48-4.44,9.27,9.27,0,0,0-5.56-1.68,11.52,11.52,0,0,0-6,1.68,14.93,14.93,0,0,0-4.69,4.44,14.12,14.12,0,0,0-2.35,6,11.48,11.48,0,0,0,.69,6.12,9.76,9.76,0,0,0,3.52,4.36A9.43,9.43,0,0,0,698,700.17Z"/><path class="cls-2" d="M742.41,674.32h2.37l-4.07,28.76A11.69,11.69,0,0,1,739,707.8a16.92,16.92,0,0,1-3.53,4,17.56,17.56,0,0,1-4.61,2.77,13.49,13.49,0,0,1-5,1,10.88,10.88,0,0,1-5.32-1.36,12.19,12.19,0,0,1-4.07-3.61,10.53,10.53,0,0,1-1.94-4.9l2.34-1a8.13,8.13,0,0,0,1.5,4.28,10.23,10.23,0,0,0,3.42,3.09,8.87,8.87,0,0,0,4.4,1.15,10.46,10.46,0,0,0,4.08-.84,14.77,14.77,0,0,0,3.8-2.25,13.48,13.48,0,0,0,2.91-3.23,9,9,0,0,0,1.42-3.8l1-7.2a15.74,15.74,0,0,1-4.87,4.81,12,12,0,0,1-6.52,1.84,11.91,11.91,0,0,1-5.21-1.12,11.46,11.46,0,0,1-4-3.12,12.18,12.18,0,0,1-2.33-4.61,14.11,14.11,0,0,1-.29-5.61,16.29,16.29,0,0,1,1.86-5.65,17.75,17.75,0,0,1,3.63-4.62,16.9,16.9,0,0,1,4.85-3.12,14.1,14.1,0,0,1,5.53-1.13,9.63,9.63,0,0,1,6,1.84,10.34,10.34,0,0,1,3.49,4.84ZM728.33,700.2a10.31,10.31,0,0,0,5.78-1.69,13.58,13.58,0,0,0,4.19-4.46,16,16,0,0,0,2.08-6A13.59,13.59,0,0,0,740,682a8.9,8.9,0,0,0-3-4.44,8.15,8.15,0,0,0-5.25-1.66,11.84,11.84,0,0,0-6,1.63,14.62,14.62,0,0,0-4.75,4.42,14.09,14.09,0,0,0-2.37,6.13,11.33,11.33,0,0,0,.7,6.13,9.82,9.82,0,0,0,3.53,4.37A9.44,9.44,0,0,0,728.33,700.2Z"/><path class="cls-2" d="M759.35,702.53a11.46,11.46,0,0,1-6.64-1.95,11.77,11.77,0,0,1-4.24-5.24,13.7,13.7,0,0,1-.84-7.27,16.29,16.29,0,0,1,1.86-5.65,17.93,17.93,0,0,1,3.62-4.62,16.75,16.75,0,0,1,4.82-3.12,13.94,13.94,0,0,1,5.49-1.13,12,12,0,0,1,5.32,1.14,10.32,10.32,0,0,1,3.89,3.22,12.51,12.51,0,0,1,2.15,4.92,17.84,17.84,0,0,1,.11,6.26h-25a11.53,11.53,0,0,0,1,5.68,9.42,9.42,0,0,0,8.72,5.4,11.72,11.72,0,0,0,6.12-1.73,15,15,0,0,0,4.83-4.76l2.31.55a17.79,17.79,0,0,1-5.82,6A14.19,14.19,0,0,1,759.35,702.53ZM750.19,687h22.64a10.32,10.32,0,0,0-.91-5.54,10,10,0,0,0-3.51-4.09,9.37,9.37,0,0,0-5.32-1.54,11.58,11.58,0,0,0-5.72,1.5,14.32,14.32,0,0,0-4.59,4.05A14.57,14.57,0,0,0,750.19,687Z"/><path class="cls-2" d="M794.11,676.69h-7.23l-3.58,25.13h-2.36l3.57-25.13h-5.44l.36-2.37h5.44l1.16-8.63h2.36l-1.15,8.63h7.2Z"/><path class="cls-2" d="M820.51,686.75l-2.12,15.07H816l2.12-15a11,11,0,0,0-.5-5.51,8.81,8.81,0,0,0-2.86-4,7.21,7.21,0,0,0-4.54-1.48,8.89,8.89,0,0,0-4.89,1.48,13,13,0,0,0-3.91,4,13.73,13.73,0,0,0-2,5.51l-2.12,15h-2.36l5.8-41.25h2.36l-2.66,18.95a14.58,14.58,0,0,1,4.66-4.43,10.93,10.93,0,0,1,5.59-1.54,9.11,9.11,0,0,1,5.75,1.83,10.38,10.38,0,0,1,3.45,4.84A13.63,13.63,0,0,1,820.51,686.75Z"/><path class="cls-2" d="M835.31,702.53a11.5,11.5,0,0,1-6.65-1.95,11.82,11.82,0,0,1-4.23-5.24,13.51,13.51,0,0,1-.84-7.27,16.08,16.08,0,0,1,1.86-5.65,17.89,17.89,0,0,1,3.61-4.62,16.8,16.8,0,0,1,4.83-3.12,13.94,13.94,0,0,1,5.49-1.13,12,12,0,0,1,5.32,1.14,10.48,10.48,0,0,1,3.89,3.22,12.5,12.5,0,0,1,2.14,4.92,17.61,17.61,0,0,1,.11,6.26h-25a11.42,11.42,0,0,0,1,5.68,9.42,9.42,0,0,0,8.72,5.4,11.66,11.66,0,0,0,6.11-1.73,14.82,14.82,0,0,0,4.83-4.76l2.31.55a17.79,17.79,0,0,1-5.82,6A14.16,14.16,0,0,1,835.31,702.53ZM826.15,687h22.63a10.23,10.23,0,0,0-.91-5.54,9.94,9.94,0,0,0-3.5-4.09A9.4,9.4,0,0,0,839,675.8a11.55,11.55,0,0,0-5.71,1.5,14.46,14.46,0,0,0-4.6,4.05A14.7,14.7,0,0,0,826.15,687Z"/><path class="cls-2" d="M872.21,676.46a7.36,7.36,0,0,0-1.33-.42,7.2,7.2,0,0,0-1.5-.15,9.08,9.08,0,0,0-5,1.48,12.94,12.94,0,0,0-3.95,4,13.76,13.76,0,0,0-2.05,5.51l-2.12,15H854l3.88-27.5h2.36l-.74,5.28a15.45,15.45,0,0,1,4.76-4.46,11.05,11.05,0,0,1,5.66-1.59,10.68,10.68,0,0,1,1.63.12,8.17,8.17,0,0,1,1.42.37Z"/><path class="cls-3" d="M726,115.9c-22.43,273.53,107.44,249.81,169,226.94,11.45-4.24,12.85-.59,9.41,8.8,12.53-28.82-24-31.45-59.79-46.7C757,274.78,731.31,202.21,726,115.9Z"/><path class="cls-4" d="M726,115.9c5.21,86.31,30.92,158.93,118.63,189C810.41,290.4,776.75,264.37,787.34,193c-31.19-23-56.09-48.36-61.25-77.13Z"/><path class="cls-5" d="M787.29,193.08c-10.54,71.34,23.06,97.37,57.32,111.92,35.81,15.19,72.38,17.87,59.8,46.7-9.09,24.8-51.89,89.64-33.34,155.39-.38-72.25,43.4-112.51,85.77-146.27-6.73-17.76-19.74-35.42-35.55-50.94-27.47-26.94-69.58-46.75-92.43-89.1-14.31-8.86-28.51-18.09-41.63-27.75Z"/><path class="cls-6" d="M828.91,220.78c22.85,42.35,65,62.16,92.44,89.1,15.81,15.52,28.82,33.23,35.54,50.94,38.61-30.7,76-56,78-95.11-.06-2.41-.06-4.78-.06-7.14.11-18.78,2.31-35.27,15-48.58l110-100.1c1.51-2.21-.64-4.3-2.74-2.42l-110.67,76c-17.63,12.12-32.91,15.13-44.95,15.13-63.13,0-79,51.26-75.24,86.36C905.32,265.17,866.71,244.24,828.91,220.78Zm154,7.46a9.88,9.88,0,1,0,9.89,9.88A9.86,9.86,0,0,0,982.87,228.24Z"/><path class="cls-7" d="M828.91,220.78c37.86,23.46,76.41,44.39,97.27,64.14C895.8,173.87,829,193.35,820,92.17,806.59,152.08,813.21,191.75,828.91,220.78Z"/><path class="cls-8" d="M828.91,220.78c-15.7-29-22.32-68.76-8.93-128.61-18.6,41.17-28.72,74.18-32.69,100.91,13.12,9.66,27.31,18.9,41.62,27.75Z"/><path class="cls-9" d="M1034.86,265.71c-1.93,39.07-39.41,64.41-78,95.11,9.84,26,6.29,52.18-21.4,71.71,9.89-6.87,19.3-12.93,26.78-18,78.72-53.51,73.18-106.33,72.64-148.79Z"/><path class="cls-10" d="M935.49,432.53c27.69-19.53,31.24-45.68,21.4-71.71-42.37,33.71-86.14,74-85.77,146.27,4.63-29.36,36.57-55.23,64.43-74.56Z"/><path class="cls-2" d="M120.43,346.94a28.85,28.85,0,0,1-15.59-4.4,32.94,32.94,0,0,1-15.41-28.21,33.4,33.4,0,0,1,9.09-23.16,30.92,30.92,0,0,1,9.89-7,30.13,30.13,0,0,1,25.11.41,30.32,30.32,0,0,1,10.16,8.12,33.72,33.72,0,0,1,6.2,11.9,36.24,36.24,0,0,1,1.18,14.29h-47.8a20.39,20.39,0,0,0,3.13,7.72,16.84,16.84,0,0,0,6,5.43,17.12,17.12,0,0,0,8.09,2,16.22,16.22,0,0,0,8.59-2.35,18.72,18.72,0,0,0,6.36-6.51l13.08,3a32.45,32.45,0,0,1-11.22,13.49A28.73,28.73,0,0,1,120.43,346.94ZM102.83,309H138a18.4,18.4,0,0,0-3.13-8.09,18.93,18.93,0,0,0-6.26-5.76,16.83,16.83,0,0,0-16.37,0,18,18,0,0,0-6.2,5.73A20.92,20.92,0,0,0,102.83,309Z"/><path class="cls-2" d="M201.78,327.72,213.31,334a31.43,31.43,0,0,1-10.7,9.42,29.72,29.72,0,0,1-29.63-.86,32.94,32.94,0,0,1-15.41-28.21,33.45,33.45,0,0,1,9.08-23.16,31.14,31.14,0,0,1,9.89-7,29.72,29.72,0,0,1,26.07,1,31.32,31.32,0,0,1,10.7,9.49l-11.53,6.26a18,18,0,0,0-6.08-4.74,16.41,16.41,0,0,0-7.13-1.64,16.2,16.2,0,0,0-9.21,2.76,19.8,19.8,0,0,0-6.51,7.25,20.64,20.64,0,0,0-2.38,9.83,20.17,20.17,0,0,0,2.42,9.76,19.55,19.55,0,0,0,6.54,7.22,16.53,16.53,0,0,0,16.46,1A18.52,18.52,0,0,0,201.78,327.72Z"/><path class="cls-2" d="M249.83,346.94a28.86,28.86,0,0,1-15.6-4.4,32.91,32.91,0,0,1-15.4-28.21,33.45,33.45,0,0,1,9.08-23.16,31,31,0,0,1,9.89-7A29.79,29.79,0,0,1,265.42,286a32.55,32.55,0,0,1,11.22,11.84,33.74,33.74,0,0,1-4.9,39.53,31.09,31.09,0,0,1-9.85,7A29,29,0,0,1,249.83,346.94Zm0-12.9a16.28,16.28,0,0,0,9.24-2.73,19.46,19.46,0,0,0,6.47-7.22,21.22,21.22,0,0,0-.06-19.68,19.69,19.69,0,0,0-6.54-7.23,16.86,16.86,0,0,0-18.32,0,19.35,19.35,0,0,0-6.51,7.26,20.83,20.83,0,0,0-2.39,9.86,20.24,20.24,0,0,0,2.48,10,19.64,19.64,0,0,0,6.61,7.1A16.35,16.35,0,0,0,249.83,334Z"/><path class="cls-1" d="M290.07,345.33v-86.8h28.7a42.19,42.19,0,0,1,16.87,3.38,43.32,43.32,0,0,1,13.82,9.36,44.13,44.13,0,0,1,9.33,13.82,43.62,43.62,0,0,1,0,33.67,44.17,44.17,0,0,1-9.33,13.83A43.48,43.48,0,0,1,335.64,342a42.36,42.36,0,0,1-16.87,3.38ZM303,332.43h15.81a29.41,29.41,0,0,0,11.81-2.36,31.12,31.12,0,0,0,9.74-6.57,30.38,30.38,0,0,0,6.6-9.73,30.91,30.91,0,0,0,0-23.69,30.49,30.49,0,0,0-6.6-9.73,31.12,31.12,0,0,0-9.74-6.57,29.58,29.58,0,0,0-11.81-2.36H303Z"/><path class="cls-1" d="M399.13,346.94a28.86,28.86,0,0,1-15.6-4.4,32.91,32.91,0,0,1-15.4-28.21,33.33,33.33,0,0,1,9.08-23.16,31,31,0,0,1,9.89-7,30.13,30.13,0,0,1,25.11.41,30.45,30.45,0,0,1,10.17,8.12,33.89,33.89,0,0,1,6.2,11.9,36.43,36.43,0,0,1,1.17,14.29H382a20.39,20.39,0,0,0,3.13,7.72A16.93,16.93,0,0,0,391,332a17.13,17.13,0,0,0,8.1,2,16.18,16.18,0,0,0,8.58-2.35,18.72,18.72,0,0,0,6.36-6.51l13.08,3a32.45,32.45,0,0,1-11.22,13.49A28.67,28.67,0,0,1,399.13,346.94ZM381.52,309h35.21a18.4,18.4,0,0,0-3.13-8.09,18.93,18.93,0,0,0-6.26-5.76,16.83,16.83,0,0,0-16.37,0,18,18,0,0,0-6.2,5.73A20.92,20.92,0,0,0,381.52,309Z"/><path class="cls-1" d="M440.48,345.33v-93h12.83v93Z"/><path class="cls-1" d="M475.45,273.1a6.76,6.76,0,0,1-4.9-1.92,6.84,6.84,0,0,1,0-9.65,6.7,6.7,0,0,1,4.9-1.95,6.62,6.62,0,0,1,4.83,1.95,6.87,6.87,0,0,1,0,9.65A6.68,6.68,0,0,1,475.45,273.1Zm-6.51,10.23h12.89v62H468.94Z"/><path class="cls-1" d="M536.82,345.33H520.27L497.64,283.2H511.4l17.12,47.25,17.17-47.25h13.7Z"/><path class="cls-1" d="M593.06,346.94a28.88,28.88,0,0,1-15.6-4.4,32.91,32.91,0,0,1-15.4-28.21,33.45,33.45,0,0,1,9.08-23.16,31,31,0,0,1,9.89-7,30.13,30.13,0,0,1,25.11.41,30.25,30.25,0,0,1,10.17,8.12,33.89,33.89,0,0,1,6.2,11.9,36.62,36.62,0,0,1,1.18,14.29H575.88a20.39,20.39,0,0,0,3.13,7.72,16.87,16.87,0,0,0,6,5.43,17.06,17.06,0,0,0,8.09,2,16.18,16.18,0,0,0,8.58-2.35,18.55,18.55,0,0,0,6.36-6.51l13.08,3a32.45,32.45,0,0,1-11.22,13.49A28.67,28.67,0,0,1,593.06,346.94ZM575.45,309h35.22a18.64,18.64,0,0,0-3.13-8.09,19.06,19.06,0,0,0-6.27-5.76,16.81,16.81,0,0,0-16.36,0,17.9,17.9,0,0,0-6.2,5.73A20.93,20.93,0,0,0,575.45,309Z"/><path class="cls-1" d="M670.68,296.28a15.65,15.65,0,0,0-3.5-1.58,13.91,13.91,0,0,0-4.12-.59,14.17,14.17,0,0,0-8.43,2.55,17,17,0,0,0-5.62,6.88,22.59,22.59,0,0,0-2,9.61v32.18H634v-62h12.9v8.37a24.59,24.59,0,0,1,7.84-7.35,20.07,20.07,0,0,1,10.32-2.7,39,39,0,0,1,4,.19,17.32,17.32,0,0,1,3.63.74Z"/></g></svg>